<svg width="53" height="52" viewBox="0 0 53 52" fill="none" xmlns="http://www.w3.org/2000/svg">
<rect x="0.75" width="52" height="52" rx="26" fill="#F2EFED"/>
<g clip-path="url(#clip0_2630_65293)">
<path d="M27.074 15.5861C26.873 15.4713 26.627 15.4713 26.426 15.5861L16.898 20.9838C16.4961 21.2135 16.25 21.6359 16.25 22.0953C16.25 22.8008 16.8242 23.375 17.5297 23.375H26.75H35.9703C36.6758 23.375 37.25 22.8008 37.25 22.0953C37.25 21.6359 37.0039 21.2094 36.602 20.9838L27.074 15.5861ZM28.8254 22.0625C28.9689 21.7631 29.0469 21.4309 29.0469 21.0781C29.0469 19.8107 28.0174 18.7813 26.75 18.7813C25.4826 18.7813 24.4531 19.8107 24.4531 21.0781C24.4531 21.4309 24.5311 21.7631 24.6746 22.0625H17.6568L26.75 16.9109L35.8432 22.0625H28.8254ZM26.75 20.0938C27.0111 20.0938 27.2615 20.1975 27.4461 20.3821C27.6307 20.5667 27.7344 20.8171 27.7344 21.0781C27.7344 21.3392 27.6307 21.5896 27.4461 21.7742C27.2615 21.9588 27.0111 22.0625 26.75 22.0625C26.4889 22.0625 26.2385 21.9588 26.0539 21.7742C25.8693 21.5896 25.7656 21.3392 25.7656 21.0781C25.7656 20.8171 25.8693 20.5667 26.0539 20.3821C26.2385 20.1975 26.4889 20.0938 26.75 20.0938ZM18.875 29.9375C18.5141 29.9375 18.2188 30.2328 18.2188 30.5938C18.2188 30.9547 18.5141 31.25 18.875 31.25H34.625C34.9859 31.25 35.2813 30.9547 35.2813 30.5938C35.2813 30.2328 34.9859 29.9375 34.625 29.9375V24.6875H33.3125V29.9375H30.0313V24.6875H28.7188V29.9375H24.7813V24.6875H23.4688V29.9375H20.1875V24.6875H18.875V29.9375ZM17.8906 32.5625C17.5297 32.5625 17.2344 32.8578 17.2344 33.2188C17.2344 33.5797 17.5297 33.875 17.8906 33.875H35.6094C35.9703 33.875 36.2656 33.5797 36.2656 33.2188C36.2656 32.8578 35.9703 32.5625 35.6094 32.5625H17.8906ZM16.9063 35.1875C16.5453 35.1875 16.25 35.4828 16.25 35.8438C16.25 36.2047 16.5453 36.5 16.9063 36.5H36.5938C36.9547 36.5 37.25 36.2047 37.25 35.8438C37.25 35.4828 36.9547 35.1875 36.5938 35.1875H16.9063Z" fill="#A44F17"/>
</g>
<defs>
<clipPath id="clip0_2630_65293">
<rect width="21" height="21" fill="white" transform="translate(16.25 15.5)"/>
</clipPath>
</defs>
</svg>
