<svg width="53" height="52" viewBox="0 0 53 52" fill="none" xmlns="http://www.w3.org/2000/svg">
<rect x="0.75" width="52" height="52" rx="26" fill="#F2EFED"/>
<g clip-path="url(#clip0_2630_65279)">
<path d="M34.7695 19.1484C34.7695 20.5963 35.9467 21.7734 37.3945 21.7734V20.4609C37.3945 19.735 36.808 19.1484 36.082 19.1484H34.7695ZM33.457 19.1484H20.332C20.332 21.3223 18.5684 23.0859 16.3945 23.0859V28.3359C18.5684 28.3359 20.332 30.0996 20.332 32.2734H33.457C33.457 30.0996 35.2207 28.3359 37.3945 28.3359V23.0859C35.2207 23.0859 33.457 21.3223 33.457 19.1484ZM16.3945 30.9609C16.3945 31.6869 16.9811 32.2734 17.707 32.2734H19.0195C19.0195 30.8256 17.8424 29.6484 16.3945 29.6484V30.9609ZM37.3945 29.6484C35.9467 29.6484 34.7695 30.8256 34.7695 32.2734H36.082C36.808 32.2734 37.3945 31.6869 37.3945 30.9609V29.6484ZM17.707 19.1484C16.9811 19.1484 16.3945 19.735 16.3945 20.4609V21.7734C17.8424 21.7734 19.0195 20.5963 19.0195 19.1484H17.707ZM15.082 20.4609C15.082 19.0131 16.2592 17.8359 17.707 17.8359H36.082C37.5299 17.8359 38.707 19.0131 38.707 20.4609V30.9609C38.707 32.4088 37.5299 33.5859 36.082 33.5859H17.707C16.2592 33.5859 15.082 32.4088 15.082 30.9609V20.4609ZM29.5195 25.7109C29.5195 25.0147 29.243 24.3471 28.7507 23.8548C28.2584 23.3625 27.5907 23.0859 26.8945 23.0859C26.1983 23.0859 25.5307 23.3625 25.0384 23.8548C24.5461 24.3471 24.2695 25.0147 24.2695 25.7109C24.2695 26.4071 24.5461 27.0748 25.0384 27.5671C25.5307 28.0594 26.1983 28.3359 26.8945 28.3359C27.5907 28.3359 28.2584 28.0594 28.7507 27.5671C29.243 27.0748 29.5195 26.4071 29.5195 25.7109ZM22.957 25.7109C22.957 24.6666 23.3719 23.6651 24.1103 22.9267C24.8487 22.1883 25.8502 21.7734 26.8945 21.7734C27.9388 21.7734 28.9403 22.1883 29.6788 22.9267C30.4172 23.6651 30.832 24.6666 30.832 25.7109C30.832 26.7552 30.4172 27.7567 29.6788 28.4952C28.9403 29.2336 27.9388 29.6484 26.8945 29.6484C25.8502 29.6484 24.8487 29.2336 24.1103 28.4952C23.3719 27.7567 22.957 26.7552 22.957 25.7109Z" fill="#A44F17"/>
</g>
<defs>
<clipPath id="clip0_2630_65279">
<rect width="23.3333" height="20.7407" fill="white" transform="translate(15.082 15.5)"/>
</clipPath>
</defs>
</svg>
