<svg width="53" height="52" viewBox="0 0 53 52" fill="none" xmlns="http://www.w3.org/2000/svg">
<rect x="0.75" width="52" height="52" rx="26" fill="#F2EFED"/>
<g clip-path="url(#clip0_2630_65287)">
<path d="M21.3542 14.3359C21.7552 14.3359 22.0833 14.6641 22.0833 15.0651V17.2526H30.8333V15.0651C30.8333 14.6641 31.1615 14.3359 31.5625 14.3359C31.9635 14.3359 32.2917 14.6641 32.2917 15.0651V17.2526H33.75C35.3587 17.2526 36.6667 18.5605 36.6667 20.1693V21.6276V23.0859V34.7526C36.6667 36.3613 35.3587 37.6693 33.75 37.6693H19.1667C17.5579 37.6693 16.25 36.3613 16.25 34.7526V23.0859V21.6276V20.1693C16.25 18.5605 17.5579 17.2526 19.1667 17.2526H20.625V15.0651C20.625 14.6641 20.9531 14.3359 21.3542 14.3359ZM35.2083 23.0859H17.7083V34.7526C17.7083 35.5592 18.36 36.2109 19.1667 36.2109H33.75C34.5566 36.2109 35.2083 35.5592 35.2083 34.7526V23.0859ZM33.75 18.7109H19.1667C18.36 18.7109 17.7083 19.3626 17.7083 20.1693V21.6276H35.2083V20.1693C35.2083 19.3626 34.5566 18.7109 33.75 18.7109ZM20.625 31.1068C20.625 30.7057 20.9531 30.3776 21.3542 30.3776H27.1875C27.5885 30.3776 27.9167 30.7057 27.9167 31.1068C27.9167 31.5078 27.5885 31.8359 27.1875 31.8359H21.3542C20.9531 31.8359 20.625 31.5078 20.625 31.1068ZM21.3542 26.0026H31.5625C31.9635 26.0026 32.2917 26.3307 32.2917 26.7318C32.2917 27.1328 31.9635 27.4609 31.5625 27.4609H21.3542C20.9531 27.4609 20.625 27.1328 20.625 26.7318C20.625 26.3307 20.9531 26.0026 21.3542 26.0026Z" fill="#A44F17"/>
</g>
<defs>
<clipPath id="clip0_2630_65287">
<rect width="20.4167" height="23.3333" fill="white" transform="translate(16.25 14.3359)"/>
</clipPath>
</defs>
</svg>
