<svg width="53" height="52" viewBox="0 0 53 52" fill="none" xmlns="http://www.w3.org/2000/svg">
<rect x="0.75" width="52" height="52" rx="26" fill="#F2EFED"/>
<path d="M32.875 23.375V26.875C32.875 27.1071 32.7828 27.3296 32.6187 27.4937C32.4546 27.6578 32.2321 27.75 32 27.75H23.612L24.7441 28.8809C24.8254 28.9622 24.8898 29.0587 24.9338 29.165C24.9778 29.2712 25.0005 29.385 25.0005 29.5C25.0005 29.615 24.9778 29.7288 24.9338 29.835C24.8898 29.9413 24.8254 30.0378 24.7441 30.1191C24.6628 30.2004 24.5663 30.2648 24.46 30.3088C24.3538 30.3528 24.24 30.3755 24.125 30.3755C24.01 30.3755 23.8962 30.3528 23.79 30.3088C23.6837 30.2648 23.5872 30.2004 23.5059 30.1191L20.8809 27.4941C20.7996 27.4128 20.735 27.3163 20.691 27.2101C20.647 27.1039 20.6243 26.99 20.6243 26.875C20.6243 26.76 20.647 26.6462 20.691 26.5399C20.735 26.4337 20.7996 26.3372 20.8809 26.2559L23.5059 23.6309C23.6701 23.4668 23.8928 23.3745 24.125 23.3745C24.3572 23.3745 24.5799 23.4668 24.7441 23.6309C24.9082 23.7951 25.0005 24.0178 25.0005 24.25C25.0005 24.4822 24.9082 24.7049 24.7441 24.8691L23.612 26H31.125V23.375C31.125 23.1429 31.2172 22.9204 31.3813 22.7563C31.5454 22.5922 31.7679 22.5 32 22.5C32.2321 22.5 32.4546 22.5922 32.6187 22.7563C32.7828 22.9204 32.875 23.1429 32.875 23.375ZM38.125 18.125V33.875C38.125 34.3391 37.9406 34.7842 37.6124 35.1124C37.2843 35.4406 36.8391 35.625 36.375 35.625H17.125C16.6609 35.625 16.2158 35.4406 15.8876 35.1124C15.5594 34.7842 15.375 34.3391 15.375 33.875V18.125C15.375 17.6609 15.5594 17.2158 15.8876 16.8876C16.2158 16.5594 16.6609 16.375 17.125 16.375H36.375C36.8391 16.375 37.2843 16.5594 37.6124 16.8876C37.9406 17.2158 38.125 17.6609 38.125 18.125ZM36.375 33.875V18.125H17.125V33.875H36.375Z" fill="#A44F17" stroke="#F3EFE9" stroke-width="0.6"/>
</svg>
