<svg width="53" height="52" viewBox="0 0 53 52" fill="none" xmlns="http://www.w3.org/2000/svg">
<rect x="0.75" width="52" height="52" rx="26" fill="#F2EFED"/>
<g clip-path="url(#clip0_2630_65263)">
<path d="M17.5625 17.4688C17.5625 17.1078 17.2672 16.8125 16.9063 16.8125C16.5453 16.8125 16.25 17.1078 16.25 17.4688V31.9063C16.25 33.7191 17.7184 35.1875 19.5313 35.1875H36.5938C36.9547 35.1875 37.25 34.8922 37.25 34.5313C37.25 34.1703 36.9547 33.875 36.5938 33.875H19.5313C18.4443 33.875 17.5625 32.9932 17.5625 31.9063V17.4688ZM31.3438 19.4375H33.698L28.0625 25.073L25.2447 22.2553C25.1217 22.1322 24.9535 22.0625 24.7813 22.0625C24.609 22.0625 24.4408 22.1322 24.3178 22.2553L20.3803 26.1928C20.126 26.4471 20.126 26.8654 20.3803 27.1197C20.6346 27.374 21.0529 27.374 21.3072 27.1197L24.7813 23.6457L27.599 26.4635C27.8533 26.7178 28.2717 26.7178 28.526 26.4635L34.625 20.3645V22.7188C34.625 23.0797 34.9203 23.375 35.2813 23.375C35.6422 23.375 35.9375 23.0797 35.9375 22.7188V18.7813C35.9375 18.4203 35.6422 18.125 35.2813 18.125H31.3438C30.9828 18.125 30.6875 18.4203 30.6875 18.7813C30.6875 19.1422 30.9828 19.4375 31.3438 19.4375ZM31.3438 31.25H35.2813C35.6422 31.25 35.9375 30.9547 35.9375 30.5938V26.6563C35.9375 26.2953 35.6422 26 35.2813 26C34.9203 26 34.625 26.2953 34.625 26.6563V29.0105L31.8072 26.1928L30.8803 27.1197L33.698 29.9375H31.3438C30.9828 29.9375 30.6875 30.2328 30.6875 30.5938C30.6875 30.9547 30.9828 31.25 31.3438 31.25Z" fill="#A44F17"/>
</g>
<defs>
<clipPath id="clip0_2630_65263">
<rect width="21" height="21" fill="white" transform="translate(16.25 15.5)"/>
</clipPath>
</defs>
</svg>
