<svg width="32" height="33" viewBox="0 0 32 33" fill="none" xmlns="http://www.w3.org/2000/svg">
<path opacity="0.1" fill-rule="evenodd" clip-rule="evenodd" d="M0.000244141 16.8594C0.000244141 8.02282 7.16369 0.859375 16.0002 0.859375C24.8368 0.859375 32.0002 8.02282 32.0002 16.8594C32.0002 25.6959 24.8368 32.8594 16.0002 32.8594C7.16369 32.8594 0.000244141 25.6959 0.000244141 16.8594Z" fill="white"/>
<path fill-rule="evenodd" clip-rule="evenodd" d="M16.0011 8.32605C13.6835 8.32605 13.3927 8.33618 12.4824 8.37761C11.574 8.41921 10.9539 8.56303 10.4113 8.77405C9.85006 8.99201 9.37396 9.28357 8.89965 9.75806C8.42497 10.2324 8.13341 10.7085 7.91475 11.2695C7.70319 11.8123 7.55919 12.4326 7.5183 13.3407C7.47759 14.2509 7.46692 14.5419 7.46692 16.8595C7.46692 19.177 7.47723 19.467 7.51848 20.3772C7.56025 21.2857 7.70408 21.9057 7.91492 22.4483C8.13306 23.0096 8.42462 23.4857 8.89911 23.96C9.37325 24.4347 9.84934 24.7269 10.4102 24.9449C10.9532 25.1559 11.5735 25.2997 12.4817 25.3413C13.392 25.3828 13.6826 25.3929 16 25.3929C18.3177 25.3929 18.6077 25.3828 19.5179 25.3413C20.4263 25.2997 21.0471 25.1559 21.5901 24.9449C22.1512 24.7269 22.6265 24.4347 23.1007 23.96C23.5754 23.4857 23.8669 23.0096 24.0856 22.4485C24.2954 21.9057 24.4394 21.2855 24.482 20.3774C24.5229 19.4671 24.5336 19.177 24.5336 16.8595C24.5336 14.5419 24.5229 14.2511 24.482 13.3409C24.4394 12.4324 24.2954 11.8123 24.0856 11.2697C23.8669 10.7085 23.5754 10.2324 23.1007 9.75806C22.626 9.28339 22.1513 8.99183 21.5896 8.77405C21.0456 8.56303 20.4251 8.41921 19.5166 8.37761C18.6064 8.33618 18.3166 8.32605 15.9984 8.32605H16.0011ZM15.2355 9.86382C15.4627 9.86346 15.7162 9.86382 16.001 9.86382C18.2794 9.86382 18.5495 9.872 19.4492 9.91289C20.2812 9.95093 20.7328 10.09 21.0336 10.2068C21.4318 10.3614 21.7157 10.5463 22.0142 10.845C22.3129 11.1437 22.4978 11.4281 22.6528 11.8263C22.7696 12.1268 22.9088 12.5783 22.9467 13.4103C22.9876 14.3099 22.9965 14.5801 22.9965 16.8575C22.9965 19.1349 22.9876 19.4051 22.9467 20.3046C22.9086 21.1366 22.7696 21.5882 22.6528 21.8887C22.4981 22.2869 22.3129 22.5704 22.0142 22.8689C21.7156 23.1676 21.432 23.3525 21.0336 23.5072C20.7332 23.6245 20.2812 23.7632 19.4492 23.8012C18.5497 23.8421 18.2794 23.851 16.001 23.851C13.7224 23.851 13.4524 23.8421 12.5528 23.8012C11.7208 23.7628 11.2692 23.6238 10.9683 23.507C10.57 23.3523 10.2856 23.1674 9.98691 22.8688C9.68824 22.5701 9.50335 22.2863 9.34832 21.8879C9.23152 21.5875 9.09232 21.1359 9.05445 20.3039C9.01357 19.4044 9.00539 19.1341 9.00539 16.8554C9.00539 14.5766 9.01357 14.3078 9.05445 13.4082C9.0925 12.5762 9.23152 12.1246 9.34832 11.8238C9.50299 11.4256 9.68824 11.1412 9.98691 10.8425C10.2856 10.5438 10.57 10.3589 10.9683 10.2039C11.2691 10.0866 11.7208 9.94791 12.5528 9.90969C13.34 9.87413 13.6451 9.86346 15.2355 9.86169V9.86382ZM20.5561 11.2807C19.9908 11.2807 19.5321 11.7389 19.5321 12.3044C19.5321 12.8697 19.9908 13.3284 20.5561 13.3284C21.1214 13.3284 21.5801 12.8697 21.5801 12.3044C21.5801 11.739 21.1214 11.2807 20.5561 11.2807ZM16.0011 12.4772C13.581 12.4772 11.6188 14.4393 11.6188 16.8594C11.6188 19.2796 13.581 21.2408 16.0011 21.2408C18.4212 21.2408 20.3826 19.2796 20.3826 16.8594C20.3826 14.4393 18.4212 12.4772 16.0011 12.4772ZM16.001 14.015C17.5719 14.015 18.8455 15.2884 18.8455 16.8594C18.8455 18.4303 17.5719 19.7039 16.001 19.7039C14.43 19.7039 13.1566 18.4303 13.1566 16.8594C13.1566 15.2884 14.43 14.015 16.001 14.015Z" fill="white"/>
</svg>
