<svg width="32" height="33" viewBox="0 0 32 33" fill="none" xmlns="http://www.w3.org/2000/svg">
<path opacity="0.1" fill-rule="evenodd" clip-rule="evenodd" d="M0.000244141 16.8594C0.000244141 8.02282 7.16369 0.859375 16.0002 0.859375C24.8368 0.859375 32.0002 8.02282 32.0002 16.8594C32.0002 25.6959 24.8368 32.8594 16.0002 32.8594C7.16369 32.8594 0.000244141 25.6959 0.000244141 16.8594Z" fill="white"/>
<path fill-rule="evenodd" clip-rule="evenodd" d="M22.668 11.3589C23.4023 11.5604 23.9807 12.1542 24.1769 12.9082C24.5336 14.2747 24.5336 17.126 24.5336 17.126C24.5336 17.126 24.5336 19.9772 24.1769 21.3439C23.9807 22.0979 23.4023 22.6916 22.668 22.8932C21.3372 23.2593 16.0003 23.2593 16.0003 23.2593C16.0003 23.2593 10.6633 23.2593 9.33242 22.8932C8.59807 22.6916 8.01974 22.0979 7.82348 21.3439C7.46692 19.9772 7.46692 17.126 7.46692 17.126C7.46692 17.126 7.46692 14.2747 7.82348 12.9082C8.01974 12.1542 8.59807 11.5604 9.33242 11.3589C10.6633 10.9927 16.0003 10.9927 16.0003 10.9927C16.0003 10.9927 21.3372 10.9927 22.668 11.3589ZM14.4003 14.726V20.0593L18.6669 17.3927L14.4003 14.726Z" fill="white"/>
</svg>
