<svg width="16" height="15" viewBox="0 0 16 15" fill="none" xmlns="http://www.w3.org/2000/svg">
<g clip-path="url(#clip0_2_283)">
<path d="M5.65951 6.25846C5.98167 6.25846 6.24284 5.9973 6.24284 5.67513C6.24284 5.35296 5.98167 5.0918 5.65951 5.0918C5.33734 5.0918 5.07617 5.35296 5.07617 5.67513C5.07617 5.9973 5.33734 6.25846 5.65951 6.25846Z" stroke="white" stroke-width="1.16667" stroke-linecap="round" stroke-linejoin="round"/>
<path d="M9.15951 9.75846C9.48167 9.75846 9.74284 9.4973 9.74284 9.17513C9.74284 8.85296 9.48167 8.5918 9.15951 8.5918C8.83734 8.5918 8.57617 8.85296 8.57617 9.17513C8.57617 9.4973 8.83734 9.75846 9.15951 9.75846Z" stroke="white" stroke-width="1.16667" stroke-linecap="round" stroke-linejoin="round"/>
<path d="M5.07645 5.67358C5.07645 6.75654 5.50666 7.79515 6.27243 8.56093C7.0382 9.3267 8.07681 9.75691 9.15978 9.75691M3.90978 12.7902C5.23874 13.6575 6.84194 14.0016 8.40974 13.756C9.97755 13.5104 11.3987 12.6926 12.3988 11.4604C13.3989 10.2283 13.9069 8.66926 13.8247 7.08447C13.7426 5.49967 13.0761 4.00153 11.954 2.8794C10.8318 1.75728 9.33369 1.09077 7.74889 1.00861C6.16409 0.926452 4.60507 1.43447 3.37292 2.43455C2.14078 3.43462 1.32292 4.85581 1.07733 6.42361C0.831731 7.99142 1.17581 9.59462 2.04312 10.9236L1.57645 13.2569L3.90978 12.7902Z" stroke="white" stroke-linecap="round" stroke-linejoin="round"/>
</g>
<defs>
<clipPath id="clip0_2_283">
<rect width="16" height="14.8334" fill="white"/>
</clipPath>
</defs>
</svg>
