<svg width="32" height="33" viewBox="0 0 32 33" fill="none" xmlns="http://www.w3.org/2000/svg">
<path opacity="0.1" fill-rule="evenodd" clip-rule="evenodd" d="M0.000244141 16.8594C0.000244141 8.02282 7.16369 0.859375 16.0002 0.859375C24.8368 0.859375 32.0002 8.02282 32.0002 16.8594C32.0002 25.6959 24.8368 32.8594 16.0002 32.8594C7.16369 32.8594 0.000244141 25.6959 0.000244141 16.8594Z" fill="white"/>
<path d="M11.5461 10.7412C11.5226 9.67298 10.7587 8.85938 9.51827 8.85938C8.27786 8.85938 7.46692 9.67298 7.46692 10.7412C7.46692 11.7872 8.25389 12.6243 9.47121 12.6243H9.49438C10.7587 12.6243 11.5461 11.7872 11.5461 10.7412Z" fill="white"/>
<path d="M11.3073 14.1113H7.68134V25.0058H11.3073V14.1113Z" fill="white"/>
<path d="M20.209 13.8555C22.5951 13.8555 24.3839 15.4129 24.3839 18.7592L24.3837 25.0058H20.7579V19.1772C20.7579 17.7132 20.2332 16.7142 18.9206 16.7142C17.9189 16.7142 17.3222 17.3877 17.0601 18.0382C16.9642 18.2713 16.9407 18.5961 16.9407 18.9217V25.0061H13.3143C13.3143 25.0061 13.3621 15.1339 13.3143 14.1116H16.9407V15.6547C17.422 14.9129 18.2839 13.8555 20.209 13.8555Z" fill="white"/>
</svg>
