<svg width="32" height="33" viewBox="0 0 32 33" fill="none" xmlns="http://www.w3.org/2000/svg">
<path opacity="0.1" fill-rule="evenodd" clip-rule="evenodd" d="M0.00012207 16.8594C0.00012207 8.02282 7.16357 0.859375 16.0001 0.859375C24.8367 0.859375 32.0001 8.02282 32.0001 16.8594C32.0001 25.6959 24.8367 32.8594 16.0001 32.8594C7.16357 32.8594 0.00012207 25.6959 0.00012207 16.8594Z" fill="white"/>
<path fill-rule="evenodd" clip-rule="evenodd" d="M15.5209 13.8644L15.5545 14.418L14.9949 14.3502C12.958 14.0903 11.1786 13.209 9.66768 11.7289L8.92903 10.9945L8.73877 11.5368C8.33587 12.7458 8.59328 14.0225 9.43266 14.8812C9.88032 15.3558 9.7796 15.4236 9.00737 15.1411C8.73877 15.0507 8.50375 14.9829 8.48136 15.0168C8.40302 15.0959 8.67162 16.1241 8.88426 16.5308C9.17525 17.0958 9.76841 17.6494 10.4175 17.9771L10.9659 18.2369L10.3168 18.2482C9.69006 18.2482 9.66768 18.2595 9.73483 18.4968C9.95866 19.2312 10.8428 20.0108 11.8277 20.3498L12.5216 20.5871L11.9172 20.9486C11.0219 21.4684 9.96986 21.7621 8.91784 21.7847C8.41421 21.796 8.00012 21.8412 8.00012 21.8751C8.00012 21.9881 9.36551 22.6208 10.1601 22.8694C12.5439 23.6038 15.3754 23.2875 17.5018 22.0333C19.0127 21.1407 20.5236 19.3668 21.2287 17.6494C21.6092 16.7342 21.9897 15.062 21.9897 14.2598C21.9897 13.7401 22.0233 13.6723 22.65 13.0508C23.0193 12.6893 23.3663 12.2938 23.4334 12.1808C23.5453 11.9662 23.5342 11.9662 22.9634 12.1582C22.0121 12.4972 21.8778 12.452 22.3478 11.9436C22.6948 11.582 23.1089 10.9267 23.1089 10.7346C23.1089 10.7007 22.941 10.7572 22.7507 10.8589C22.5493 10.9719 22.1016 11.1414 21.7659 11.2431L21.1615 11.4351L20.6131 11.0623C20.311 10.8589 19.8857 10.6329 19.6618 10.5651C19.0911 10.407 18.2181 10.4295 17.7033 10.6103C16.3043 11.1188 15.4202 12.4294 15.5209 13.8644Z" fill="white"/>
</svg>
