<svg width="32" height="33" viewBox="0 0 32 33" fill="none" xmlns="http://www.w3.org/2000/svg">
<path opacity="0.1" fill-rule="evenodd" clip-rule="evenodd" d="M0.000244141 16.8594C0.000244141 8.02282 7.16369 0.859375 16.0002 0.859375C24.8368 0.859375 32.0002 8.02282 32.0002 16.8594C32.0002 25.6959 24.8368 32.8594 16.0002 32.8594C7.16369 32.8594 0.000244141 25.6959 0.000244141 16.8594Z" fill="white"/>
<path d="M20.345 17.9079L20.8633 14.6749H17.6212V12.5778C17.6212 11.6931 18.0733 10.8302 19.5254 10.8302H21.0002V8.07782C21.0002 8.07782 19.6623 7.85938 18.3838 7.85938C15.7126 7.85938 13.9683 9.40816 13.9683 12.2108V14.6749H11.0002V17.9079H13.9683V25.7239C14.5642 25.8135 15.1738 25.8594 15.7948 25.8594C16.4158 25.8594 17.0254 25.8135 17.6212 25.7239V17.9079H20.345Z" fill="white"/>
</svg>
